<svg id="Layer_1" data-name="Layer 1" xmlns="http://www.w3.org/2000/svg" xmlns:xlink="http://www.w3.org/1999/xlink" viewBox="0 0 2000 600"><defs><style>.cls-1{fill:url(#linear-gradient);}.cls-2{fill:#ebceb1;}.cls-3{fill:#2e4661;}.cls-4{fill:#cbccce;}.cls-5{fill:#821b2e;}.cls-6{fill:#bfc1c4;}.cls-7{fill:none;}.cls-8{fill:#293a53;}.cls-9{fill:#d6edfc;}.cls-10,.cls-11,.cls-12,.cls-9{opacity:0.2;}.cls-10{fill:#90b5d2;}.cls-11{fill:#fff;}.cls-12{fill:#5995bd;}</style><linearGradient id="linear-gradient" x1="893.5" y1="300" x2="2000" y2="300" gradientUnits="userSpaceOnUse"><stop offset="0" stop-color="#467970" stop-opacity="0.5"/><stop offset="0.14" stop-color="#497b71" stop-opacity="0.61"/><stop offset="0.3" stop-color="#4b7c71" stop-opacity="0.68"/><stop offset="0.54" stop-color="#4c7c71" stop-opacity="0.7"/></linearGradient></defs><title>Artboard 1</title><path class="cls-1" d="M1883.5,420.5s-100.33-25.33-191.35,37.27L893.5,600H2000V0H1226.5l515.69,218.74s47.47,88.09,160.31,110.76Z"/><path class="cls-2" d="M1921.73,522s-31-28-30.94-27.91c-1.63,1.56-10.07,10.89-12.36,10.32l-13.63-3.37a6.71,6.71,0,0,1-4.53-3.79c-1.12.26-23.19,5.24-21.08-9-2.79,16.06,5.34,22.87,5.34,22.87s41.29,21.72,52.1,24.82,29.48,40.56,29.48,40.56l19.55-13.31Z"/><path class="cls-3" d="M1692,332.48a39.1,39.1,0,0,1,33.06-30.74L1710,373.9A39.1,39.1,0,0,1,1692,332.48Z"/><path class="cls-4" d="M1907.3,335.55h54.16a0,0,0,0,1,0,0v93.22a0,0,0,0,1,0,0H1907.3a15,15,0,0,1-15-15V350.55A15,15,0,0,1,1907.3,335.55Z" transform="translate(3734.59 1151.01) rotate(-168.18)"/><rect class="cls-5" x="1892.64" y="332.32" width="37.7" height="93.22" transform="matrix(-0.98, -0.2, 0.2, -0.98, 3704.78, 1141.48)"/><path class="cls-4" d="M1692.15,457.78l50-239A250.82,250.82,0,0,0,1902.34,329.4l-19.1,91.25A250.82,250.82,0,0,0,1692.15,457.78Z"/><path class="cls-3" d="M1919.79,428.51l-31.73,102.36a9,9,0,0,1-10.08,5.2l-35.45-7.45a9,9,0,0,1-6.39-12.4l47.36-95.3Z"/><path class="cls-6" d="M1741.73,221l-49.57,236.81A250.81,250.81,0,0,1,1880,420C1858.31,410.29,1723.71,344.78,1741.73,221Z"/><path class="cls-7" d="M1860.26,497.27h0Z"/><path class="cls-2" d="M1860.26,497.27h0l.5-.09-.06,0a9.93,9.93,0,0,0,6.62-4.89s10.73-15.25,15.94-26.43-.8-16.2-.8-16.2l-2-.55-10.9-3s-17.31,6.91-27.12,31a54.53,54.53,0,0,0-3.3,11.17C1837.07,502.51,1859.15,497.53,1860.26,497.27Z"/><path class="cls-2" d="M1940.64,502.45c-.32-1.81-8.61-47.54-8.61-47.54l-41.91-29.74s-8.06.16-11.48,2,4.68,26.88,20.89,30.6c-1.52,5.44-4.09,14-3.58,26.27l.74,18.44,10.47,20.15s3.74-.65,5.26-2.65l10.3,6.58,19.1,39.93,25.7-19.76S1941,504.26,1940.64,502.45Z"/><polygon class="cls-8" points="1981.09 531.5 1916.08 575.85 1955.97 660.05 2064.06 641.22 1981.09 531.5"/><path class="cls-9" d="M-23.42-162.17l-.44-.3L417.77-198.8l31.2-2.57h0a35.94,35.94,0,0,1,6.61,5.24l.8.69.18.16.52.48.21.2.47.46.17.17c.41.42.81.85,1.23,1.32l.2.23.46.54.24.28.5.6.24.29.79,1-.78.06c39.18,47.74,32.72,150,26.42,249.2-4.87,76.8-13.08,206.19-6.68,313.68l170.54-14c39.37,0,45.48,69.93,50.39,126.09C711.28,597.11,741.09,619.51,758,622.9l-472.83,38.9C263.14,656.61,247,630,237,582.48L82.38,595.2C3.65,594.53,6,380.44,6.84,310.08,7.71,238.85,18.43,63.12,19.2,49,20,20.78,20-7.46,18.94-35.75c-1.19-30.39-6.69-85.75-30.17-115.08-5.48-5.92-7.1-7.67-9.63-9.55q-.54-.4-1.15-.82Z"/><path class="cls-10" d="M306.48,131.1c-5.5,13.19-7.59,22.63-12,42.77,2.17-59.3,7.06-118.44,9.39-177.74l162.91-13.4c-2.33,59.29-7.22,118.44-9.39,177.74l-162.91,13.4C298.91,153.7,301,144.22,306.48,131.1Z"/><path class="cls-10" d="M18.94-35.75c-1.19-30.39-6.69-85.75-30.17-115.08l16.52-1.36c6.71,9.35,27.13,37.8,30.12,114C40,77.75,24.71,193,23.36,308.72L6.84,310.08C7.71,238.85,18.43,63.12,19.2,49,20,20.78,20-7.46,18.94-35.75Z"/><path class="cls-11" d="M29,94.46l-11,.39c7.1-94.39,4.76-128.21-2.23-179L28.7-85C35.68-34.15,36.05.18,29,94.46Z"/><path class="cls-12" d="M332.93,77.61c10.15,18,20.13,36,30.37,53.92,51.36-71.37,51.36-71.37,55.88-79.94,4.21,14.61,4.21,14.61,29.62,68.17l.35.73c1.49,3.16,2.06,4.71,3.51,12.68.69,3.79,1.58,9,2.87,16.6l.45,2.63.56,3.27.39,2.31.42,2.49-162.91,13.4c4.47-20.17,6.57-29.65,12-42.77C311.32,119.46,318.81,105,332.93,77.61Z"/><path class="cls-12" d="M377,78.07a20.2,20.2,0,0,1-1.91,1.67l-.34.24c-.42.31-.85.58-1.27.84s-.61.37-.92.53l-.51.24a15.21,15.21,0,0,1-1.76.72,11.67,11.67,0,0,1-9.12-.63,13.55,13.55,0,0,1-4.8-4.28l0,0c-.23-.33-.47-.66-.69-1-2.14-3.53-3.46-8.41-3.43-14.62.1-17.19,9.58-29.5,18.37-30.22a12.86,12.86,0,0,1,7.11,2c8.54,5.46,10.45,21,6.07,33.42A29.41,29.41,0,0,1,377,78.07Z"/><path class="cls-10" d="M456.42,189.9l-.22,8.39L293.29,211.7l.23-8.4Z"/><path class="cls-10" d="M456,206c-.06,2.6-.14,6.07-.2,8.67l-115.88,9.53c.06-2.6.14-6.07.2-8.67Z"/><path class="cls-10" d="M455.21,245.81,292.3,259.21l.15-9.12,162.91-13.4Z"/><path class="cls-10" d="M455,263.69,292,277.09c0-2.84.09-6.62.13-9.46l162.91-13.4C455,257.06,455,260.85,455,263.69Z"/><path class="cls-10" d="M454.74,282.26l-162.91,13.4c0-2.94.07-6.85.11-9.79l162.91-13.4C454.81,275.41,454.77,279.32,454.74,282.26Z"/><path class="cls-10" d="M454.58,300.6,291.66,314l.08-9.35,162.91-13.4Z"/><path class="cls-10" d="M454.47,316.25l-162.91,13.4,0-8.2,162.91-13.4Z"/><path class="cls-10" d="M454.44,323.8v8.41l-115.88,9.53v-8.41l49.65-4.08,24.83-2Z"/><path class="cls-10" d="M135.22,95.24l-.45,7.15-49.65,4.08-46.74,3.84q.22-3.57.45-7.15l49.65-4.09Z"/><path class="cls-10" d="M189.11,111.57l-49.65,4.09-49.65,4.09-33.34,2.74c.26-4.28.26-4.28.44-7.21l49.65-4.09,49.65-4.08L205.87,103l33.34-2.74c-.26,4.52-.26,4.52-.44,7.21Z"/><path class="cls-10" d="M155.77,100.66q.22-3.57.45-7.15l83.83-6.9c-.29,4.71-.29,4.71-.45,7.15Z"/><path class="cls-10" d="M191.71,70,145,73.87c.13-2.14.31-5,.44-7.14L241.8,58.8c-.13,2.14-.31,5-.44,7.14Z"/><path class="cls-10" d="M52.81,94.92l.45-7.08L241,72.4l-.45,7.08Z"/><path class="cls-10" d="M124.43,68.46c-.13,2.14-.31,5-.44,7.14L74.33,79.68,40.13,82.5c.13-2.14.31-5,.44-7.14l49.65-4.09Z"/><path class="cls-10" d="M138.67,38.08c-.12,2.17-.27,5.07-.39,7.24l-96.4,7.93c.12-2.17.28-5.07.39-7.24l49.65-4.09Z"/><path class="cls-10" d="M133.23,363.93,83.58,368l-33.34,2.74,0-7.14,182.3-15,0,7.14Z"/><path class="cls-10" d="M232.53,335.24l0,7-83.83,6.9,0-7Z"/><path class="cls-10" d="M232.75,306.65l-.07,8.44L136.3,323l.07-8.44Z"/><path class="cls-10" d="M44.93,336.83l187.69-15.44,0,6.84L44.88,343.67Z"/><path class="cls-10" d="M143,58.61,93.35,62.7,60,65.44c.13-2.16.3-5,.42-7.2l99.31-8.17L209.4,46l33.34-2.74c-.13,2.16-.29,5-.42,7.2Z"/><path class="cls-10" d="M159.27,43.59c.12-2.17.28-5.07.39-7.24l83.83-6.9c-.12,2.17-.27,5.07-.39,7.24Z"/><path class="cls-10" d="M148.14,16.21c.09-2.19.21-5.1.29-7.29l49.65-4.08L244.8,1c-.09,2.19-.2,5.1-.29,7.29Z"/><path class="cls-10" d="M56.18,37.6c.1-2.18.24-5.09.35-7.27l187.7-15.44c-.1,2.18-.24,5.09-.35,7.27l-49.65,4.09-49.65,4.08Z"/><path class="cls-10" d="M77.48,22l-34.2,2.81c.09-2.19.21-5.1.29-7.29l49.65-4.09,34.2-2.81c-.09,2.19-.2,5.1-.29,7.29Z"/><path class="cls-10" d="M237,140.89,112.83,151.11l-49.65,4.08-27.45,2.26q.2-4.18.41-8.36l201.23-16.55Q237.16,136.71,237,140.89Z"/><path class="cls-10" d="M208.14,176.32l27.45-2.26-.28,7.76L34.08,198.38l.28-7.76,124.13-10.21Z"/><path class="cls-10" d="M207.16,206.41l27.45-2.26-.22,8.1L110.24,222.47l-49.65,4.08-27.45,2.26.22-8.1L157.5,210.5Z"/><path class="cls-10" d="M233.63,244.33,32.4,260.88l.18-8.56,201.23-16.55Z"/><path class="cls-10" d="M292.33,386.82h0l162.91-13.4.08,1.88-162.91,13.4Z"/><path class="cls-10" d="M32.07,408.23,156.21,398l49.65-4.08,27.45-2.26.09,1.88L203.12,396h0l-24.84,2c39.24-1.2,45.82,73.91,50.17,123.61A515.84,515.84,0,0,0,237,582.47L82.36,595.19q1-.09,2.08-.25c14.34-2.37,25.88-16.23,32.48-39,4.48-15.46,6.82-32.85,9.07-49.7,1.14-8.47,2.31-17,3.74-25.44l-89.16,7.33L38.93,479l92.57-7.62a151.13,151.13,0,0,1,7.28-25.51l.55-1.35-26.91,2.21-49.65,4.09-27.45,2.26-.95-9.3,109.22-9c4.7-9.94,10.89-20.64,18.24-27.93L32.5,417.54Z"/><path class="cls-10" d="M384.39,389.34c1.31,1.24,3.11,2.84,4.33,4.17l-99.31,8.17-49.65,4.09-14,1.15c-1.28-1.27-2.95-3-4.33-4.17h0Z"/><path class="cls-10" d="M229.31,411.36l74.48-6.13,41.4-3.41c1.06,1.69,2.53,3.91,3.5,5.65L299,411.56l-24.83,2L232.82,417C231.78,415.31,230.44,413,229.31,411.36Z"/><path class="cls-10" d="M239.86,433.71l162.91-13.4c.69,2.3,1.64,5.36,2.28,7.67l-162.91,13.4C241.46,439.07,240.6,436,239.86,433.71Z"/><path class="cls-10" d="M243.95,448.67l162.91-13.4c.53,2.51,1.26,5.85,1.75,8.36L245.7,457C245.18,454.52,244.51,451.17,243.95,448.67Z"/><path class="cls-10" d="M247.11,464.94l99.31-8.17,49.65-4.09,14-1.15c.41,2.66,1,6.2,1.35,8.86l-99.31,8.17-49.65,4.08-14,1.15C248.05,471.14,247.54,467.59,247.11,464.94Z"/><path class="cls-10" d="M249.52,481.92l162.91-13.4c.32,2.7.74,6.31,1,9l-99.31,8.17-49.65,4.08-14,1.15C250.25,488.23,249.85,484.62,249.52,481.92Z"/><path class="cls-10" d="M251.41,499.23h0l99.31-8.17L400.37,487l14-1.15c.26,2.68.6,6.25.85,8.94l-99.31,8.17L266.21,507l-14,1.15C252,505.49,251.68,501.91,251.41,499.23Z"/><path class="cls-10" d="M368.86,506.61q.39,4.44.78,8.89L253.76,525q-.4-4.45-.78-8.89L327.46,510Z"/><path class="cls-10" d="M624.48,492.56l33.34-2.74q.32,3.68.66,7.36l-182.3,15q-.34-3.68-.66-7.36l99.31-8.17Z"/><path class="cls-10" d="M474.27,490.69l83.83-6.9.66,7.4-83.83,6.9Z"/><path class="cls-10" d="M567.5,453.16l.92,7.58L472,468.67l-.92-7.58Z"/><path class="cls-10" d="M473.56,483.14l-.76-7.58,187.7-15.44.76,7.58Z"/><path class="cls-10" d="M473,384.16l-27.45,2.26c-1.31-1.1-3-2.63-4.41-3.62L565.3,372.58,615,368.5l27.45-2.26c1.33,1.07,3.17,2.45,4.41,3.62L522.68,380.07Z"/><path class="cls-10" d="M486.15,404.78,458.7,407c-.86-1.9-2-4.45-2.9-6.31L657,384.17c.88,1.89,2.1,4.39,2.9,6.31L535.8,400.69Z"/><path class="cls-10" d="M258,561.09l162.91-13.4c.44,2.66,1,6.21,1.51,8.87L259.54,570C259.07,567.31,258.46,563.76,258,561.09Z"/><path class="cls-10" d="M261.14,578.21l117.45-9.66c.6,2.78,1.41,6.48,2.06,9.25l-74.48,6.13-43,3.53C262.57,584.69,261.73,581,261.14,578.21Z"/><path class="cls-10" d="M508.92,549.45l-27.45,2.26c-.47-2.66-1.08-6.21-1.51-8.87l124.13-10.21,49.65-4.08,27.45-2.26c.44,2.66,1,6.21,1.51,8.87L558.57,545.37Z"/><path class="cls-10" d="M431,591.67,268,605.07c-.83-2.74-1.91-6.4-2.69-9.15l162.91-13.4C429.05,585.27,430.11,588.93,431,591.67Z"/><path class="cls-10" d="M691.21,570.26,567.08,580.47l-49.65,4.09L490,586.81c-.82-2.74-1.91-6.4-2.69-9.15l201.23-16.55C689.31,563.86,690.37,567.52,691.21,570.26Z"/><path class="cls-10" d="M673.34,596.59l27.45-2.26c1.22,2.28,2.86,5.31,4.18,7.54L503.73,618.43c-1.29-2.25-3-5.25-4.18-7.54h0l124.13-10.21Z"/></svg>